<svg width="24" height="24" viewBox="0 0 24 24" fill="none" xmlns="http://www.w3.org/2000/svg">
<path d="M4.29289 5H20.2929M15 11H20.2929M15 15H20.2929M15 19H20.2929M4 12C4 11.7348 4.10536 11.4804 4.29289 11.2929C4.48043 11.1054 4.73478 11 5 11H11C11.2652 11 11.5196 11.1054 11.7071 11.2929C11.8946 11.4804 12 11.7348 12 12V18C12 18.2652 11.8946 18.5196 11.7071 18.7071C11.5196 18.8946 11.2652 19 11 19H5C4.73478 19 4.48043 18.8946 4.29289 18.7071C4.10536 18.5196 4 18.2652 4 18V12Z" stroke="#181A1C" stroke-width="2" stroke-linecap="round" stroke-linejoin="round"/>
</svg>